<svg width="562" height="562" viewBox="0 0 562 562" fill="none" xmlns="http://www.w3.org/2000/svg">
  <path d="M420 525.419L277.67 285L0.964132 291.859H0C5.54376 442.03 129.314 561.999 281.044 561.999C331.541 562.12 379.024 548.763 420 525.419Z" fill="#D1D1D1" />
  <path d="M427.974 521C508.414 471.414 562 382.498 562 281.035C562 180.778 509.738 92.8269 430.984 43L430.503 43.8445L286 281.035L427.853 520.759L427.974 521Z" fill="#909090" />
  <path d="M423 38.5526C381.338 14.0958 332.813 0 280.916 0C125.828 0 0 125.898 0 281.072C0 281.675 0 282.398 0 283H1.2041L278.267 275.53L422.398 39.7573L423 38.5526Z" fill="#BCBCBC" />
  <path d="M453.292 261.823C456.406 261.823 459.519 261.779 462.633 261.837C464.892 261.881 466.905 260.114 466.847 257.624C466.774 255.061 466.818 252.513 466.847 249.95C466.861 249.356 466.673 249.226 466.108 249.24C464.515 249.269 462.922 249.197 461.329 249.269C460.229 249.313 459.505 248.473 459.461 247.676C459.418 246.706 460.127 245.968 461.228 245.867C461.489 245.838 461.764 245.852 462.024 245.852C463.444 245.852 464.877 245.838 466.296 245.852C466.716 245.852 466.977 245.751 467.064 245.287C467.744 241.595 469.902 238.96 472.871 236.803C477.128 233.704 480.372 229.737 482.703 224.988C484.789 220.731 485.918 216.271 486.049 211.522C486.121 208.597 485.86 205.716 485.165 202.863C483.037 194.074 477.983 187.385 470.409 182.578C467.426 180.681 464.139 179.407 460.663 178.625C457.941 178.017 455.189 177.713 452.424 177.8C447.485 177.959 442.779 179.132 438.391 181.448C437.45 181.941 436.552 182.476 435.64 182.998C434.771 183.505 433.757 183.302 433.28 182.549C432.744 181.695 432.961 180.681 433.859 180.102C436.741 178.292 439.782 176.873 443.054 175.888C446.964 174.716 450.961 174.18 455.03 174.397C457.912 174.542 460.75 175.02 463.545 175.845C467.078 176.873 470.351 178.408 473.392 180.435C478.098 183.577 481.849 187.588 484.702 192.482C486.208 195.059 487.352 197.781 488.177 200.648C488.67 202.371 489.003 204.137 489.234 205.933C489.495 208.047 489.582 210.161 489.495 212.275C489.35 215.764 488.655 219.138 487.497 222.425C485.585 227.883 482.53 232.604 478.359 236.614C476.969 237.946 475.448 239.105 473.928 240.278C471.495 242.131 470.293 244.607 470.25 247.648C470.206 250.876 470.177 254.12 470.25 257.349C470.337 261.099 468.092 264.009 464.675 264.936C464.298 265.037 464.269 265.327 464.153 265.558C463.053 267.861 461.402 269.641 459.186 270.872C456.42 272.407 453.466 272.769 450.396 272.016C447.283 271.249 444.806 269.497 443.185 266.731C442.533 265.631 441.78 264.95 440.578 264.386C437.812 263.082 436.407 260.751 436.422 257.624C436.436 254.612 436.35 251.586 436.451 248.574C436.581 244.607 434.901 241.726 431.716 239.452C427.111 236.165 423.621 231.88 421.058 226.826C420.131 225.016 419.349 223.149 418.755 221.194C418.074 218.964 417.64 216.676 417.336 214.36C416.93 211.218 417.075 208.09 417.539 204.992C418.031 201.719 418.987 198.548 420.391 195.537C422.274 191.497 424.823 187.921 427.994 184.793C428.486 184.315 429.022 183.895 429.79 184.156C431.165 184.634 431.498 186.082 430.456 187.139C428.588 189.007 426.893 191.034 425.503 193.278C423.867 195.913 422.607 198.708 421.767 201.719C420.449 206.44 420.232 211.203 421.043 216.025C422.477 224.408 426.647 231.185 433.28 236.441C434.771 237.613 436.321 238.685 437.436 240.263C438.522 241.798 439.26 243.463 439.593 245.316C439.68 245.794 439.941 245.823 440.303 245.823C441.679 245.823 443.054 245.823 444.43 245.823C447.659 245.823 450.903 245.823 454.132 245.823C455.146 245.823 455.87 246.33 456.058 247.126C456.333 248.256 455.407 249.24 454.321 249.24C449.802 249.197 445.299 249.226 440.781 249.226C439.709 249.226 439.796 249.081 439.796 250.181C439.796 252.643 439.796 255.104 439.796 257.566C439.796 259.723 440.897 261.171 442.967 261.707C443.315 261.794 443.677 261.794 444.039 261.808C447.109 261.823 450.193 261.823 453.292 261.823ZM453.292 265.182C451.193 265.182 449.107 265.182 447.008 265.182C446.776 265.182 446.457 265.052 446.341 265.298C446.226 265.529 446.501 265.718 446.646 265.891C448.108 267.672 450.02 268.773 452.264 269.004C455.378 269.337 457.999 268.251 460.026 265.819C460.156 265.66 460.403 265.515 460.258 265.269C460.142 265.081 459.91 265.167 459.722 265.167C457.579 265.182 455.436 265.182 453.292 265.182Z" fill="#FFB600" />
  <path d="M467.21 233.429C466.776 233.487 466.457 233.357 466.153 233.125C465.125 232.343 464.068 231.59 463.054 230.794C462.634 230.461 462.286 230.446 461.809 230.678C461.099 231.025 460.36 231.33 459.607 231.576C459.173 231.72 459.072 231.996 459.014 232.372C458.854 233.559 458.681 234.747 458.521 235.948C458.348 237.223 457.754 237.773 456.465 237.773C454.336 237.773 452.222 237.773 450.093 237.773C448.848 237.773 448.283 237.208 448.124 235.963C447.965 234.703 447.733 233.443 447.53 232.184C447.487 231.851 447.313 231.706 446.994 231.59C446.183 231.315 445.373 230.996 444.605 230.591C444.257 230.403 443.982 230.49 443.678 230.721C442.592 231.547 441.506 232.372 440.391 233.168C439.71 233.646 438.943 233.617 438.349 233.038C436.64 231.387 434.961 229.722 433.295 228.028C432.658 227.377 432.644 226.696 433.179 225.929C433.961 224.814 434.787 223.728 435.627 222.642C435.858 222.338 435.916 222.106 435.728 221.73C435.337 220.962 434.961 220.18 434.758 219.326C434.671 218.964 434.41 218.863 434.019 218.776C432.673 218.486 431.311 218.443 429.965 218.168C429.183 218.009 428.517 217.212 428.502 216.445C428.488 214.172 428.488 211.913 428.502 209.64C428.517 208.698 429.11 208.09 430.037 207.946C431.398 207.728 432.745 207.497 434.106 207.323C434.454 207.28 434.657 207.12 434.729 206.831C434.961 205.962 435.323 205.151 435.728 204.369C435.916 204.007 435.844 203.761 435.612 203.457C434.845 202.472 434.106 201.473 433.353 200.474C432.571 199.417 432.629 198.751 433.556 197.825C434.975 196.406 436.394 194.972 437.813 193.539C438.827 192.511 439.609 192.236 440.927 193.322C441.767 194.017 442.694 194.639 443.562 195.305C443.939 195.595 444.286 195.682 444.75 195.45C445.459 195.102 446.198 194.798 446.951 194.567C447.559 194.379 447.588 193.872 447.661 193.437C447.863 192.279 447.994 191.106 448.138 189.933C448.254 188.992 448.848 188.384 449.804 188.37C452.121 188.341 454.438 188.341 456.755 188.37C457.725 188.384 458.333 188.949 458.492 189.962C458.666 191.121 458.854 192.293 458.97 193.466C459.028 194.132 459.274 194.494 459.955 194.668C460.578 194.827 461.171 195.117 461.736 195.407C462.257 195.667 462.663 195.638 463.112 195.276C464.01 194.552 464.936 193.886 465.849 193.191C466.935 192.38 467.586 192.409 468.557 193.365C470.063 194.856 471.569 196.348 473.06 197.854C473.9 198.693 473.973 199.446 473.278 200.416C472.539 201.444 471.772 202.458 470.99 203.457C470.714 203.804 470.714 204.08 470.888 204.427C471.25 205.137 471.569 205.861 471.786 206.613C471.916 207.048 472.148 207.28 472.684 207.337C474.002 207.468 475.305 207.743 476.608 207.946C477.434 208.076 478.056 208.713 478.071 209.567C478.1 211.884 478.143 214.201 478.056 216.517C478.013 217.676 477.535 218.038 476 218.313C474.841 218.515 473.669 218.66 472.51 218.79C472.206 218.819 472.047 218.906 471.931 219.196C471.569 220.108 471.192 221.02 470.801 221.904C470.656 222.222 470.845 222.396 470.99 222.613C471.786 223.684 472.597 224.756 473.379 225.842C473.915 226.595 473.929 227.348 473.292 227.999C471.656 229.693 469.961 231.358 468.282 233.024C467.992 233.313 467.63 233.545 467.21 233.429ZM453.308 234.356C453.815 234.356 454.322 234.341 454.829 234.356C455.191 234.37 455.335 234.254 455.379 233.878C455.509 232.748 455.683 231.634 455.828 230.519C455.944 229.621 456.364 228.955 457.261 228.738C458.768 228.361 460.172 227.797 461.504 227C462.33 226.508 463.083 226.58 463.836 227.159C464.705 227.84 465.603 228.477 466.471 229.158C466.833 229.447 467.094 229.52 467.442 229.129C468.093 228.419 468.774 227.753 469.469 227.102C469.773 226.812 469.759 226.595 469.527 226.305C468.861 225.436 468.195 224.553 467.529 223.684C466.747 222.656 466.718 222.164 467.369 221.064C468.05 219.905 468.571 218.689 468.904 217.386C469.121 216.561 469.455 215.779 470.483 215.648C471.656 215.504 472.814 215.33 473.987 215.2C474.479 215.142 474.697 214.925 474.682 214.403C474.653 213.506 474.639 212.622 474.682 211.725C474.711 211.174 474.436 211.001 473.973 210.943C472.872 210.812 471.786 210.668 470.685 210.508C469.846 210.378 469.295 210.031 469.064 209.22C468.615 207.656 468.05 206.136 467.21 204.746C466.703 203.906 466.935 203.211 467.485 202.516C468.18 201.633 468.846 200.735 469.512 199.837C469.701 199.591 469.817 199.359 469.512 199.084C468.788 198.404 468.064 197.709 467.369 196.97C467.065 196.637 466.877 196.681 466.544 196.927C465.516 197.709 464.473 198.476 463.416 199.215C462.909 199.577 462.344 199.562 461.794 199.258C460.433 198.505 459.028 197.825 457.508 197.448C456.465 197.187 455.987 196.71 455.842 195.653C455.683 194.538 455.509 193.408 455.393 192.293C455.35 191.903 455.234 191.758 454.814 191.758C453.829 191.787 452.83 191.787 451.846 191.758C451.469 191.743 451.31 191.845 451.252 192.25C451.078 193.51 450.846 194.769 450.658 196.029C450.557 196.782 450.035 197.216 449.413 197.361C447.762 197.752 446.256 198.491 444.764 199.272C444.243 199.548 443.707 199.577 443.2 199.215C442.143 198.462 441.101 197.723 440.072 196.927C439.696 196.637 439.508 196.652 439.189 196.985C438.523 197.709 437.828 198.404 437.104 199.055C436.814 199.33 436.843 199.475 437.06 199.765C437.857 200.807 438.624 201.879 439.406 202.936C439.812 203.486 439.768 204.08 439.464 204.63C438.639 206.078 437.973 207.569 437.567 209.191C437.364 209.944 436.858 210.349 436.047 210.479C434.932 210.653 433.817 210.827 432.687 210.943C432.166 211.001 431.891 211.218 431.934 211.826C431.992 212.695 431.978 213.563 431.934 214.432C431.92 214.925 432.122 215.156 432.586 215.185C433.773 215.243 434.932 215.475 436.09 215.648C436.858 215.764 437.379 216.184 437.567 216.923C437.958 218.472 438.566 219.92 439.363 221.295C439.884 222.193 439.71 222.932 439.146 223.684C438.465 224.582 437.813 225.494 437.104 226.363C436.829 226.696 436.887 226.855 437.176 227.116C437.9 227.782 438.581 228.477 439.262 229.201C439.566 229.534 439.783 229.491 440.101 229.23C441.043 228.492 441.998 227.768 442.969 227.058C443.533 226.638 444.142 226.522 444.793 226.87C446.285 227.666 447.791 228.376 449.442 228.781C450.108 228.955 450.615 229.404 450.716 230.186C450.846 231.069 451.035 231.938 451.107 232.835C451.223 234.385 451.237 234.385 452.772 234.385C452.932 234.356 453.12 234.356 453.308 234.356Z" fill="#FFB600" />
  <path d="M453.394 202.096C459.548 202.27 464.226 206.932 464.284 213.071C464.342 219.152 459.186 224.119 453.162 223.988C447.109 223.873 442.244 218.877 442.359 212.912C442.475 206.758 447.442 202.125 453.394 202.096ZM460.823 213.057C460.982 208.988 457.434 205.469 453.307 205.498C449.151 205.527 445.705 208.945 445.734 213.071C445.762 217.256 449.122 220.542 453.307 220.6C457.246 220.658 460.982 217.227 460.823 213.057Z" fill="#FFB600" />
  <path d="M227.029 126.774C225.295 126.888 223.587 126.584 221.853 126.521C220.12 126.47 218.728 126.863 217.5 128.229C215.64 130.305 213.578 132.215 211.591 134.177C211.376 134.379 211.313 134.518 211.464 134.809C212.717 137.239 212.616 139.643 210.946 141.795C209.554 143.579 207.934 145.199 206.15 146.59C203.606 148.552 200.164 148.236 197.798 145.97C196.381 144.604 195.014 143.187 193.597 141.807C192.47 140.706 192.837 139.049 194.077 138.504C194.786 138.188 195.634 138.327 196.267 138.96C197.595 140.276 198.924 141.592 200.253 142.921C201.607 144.275 203.062 144.3 204.429 142.933C205.555 141.807 206.706 140.706 207.769 139.517C208.756 138.416 208.453 137.011 207.402 135.974C206.39 134.974 205.441 133.924 204.429 132.924C198.848 127.343 193.293 121.763 187.687 116.208C187.054 115.575 186.46 114.828 185.485 114.626C184.562 114.436 183.764 114.677 183.106 115.309C181.98 116.398 180.879 117.511 179.778 118.625C178.614 119.827 178.639 121.358 179.829 122.535C181.183 123.889 182.55 125.23 183.891 126.584C184.663 127.369 184.739 128.381 184.119 129.216C183.524 130.014 182.183 130.267 181.487 129.609C179.728 127.964 177.931 126.344 176.4 124.471C174.324 121.927 174.603 118.245 176.931 115.929C178.083 114.778 179.234 113.614 180.411 112.5C182.334 110.665 184.599 110.21 187.118 111.032C187.599 111.184 187.864 111.121 188.219 110.779C190.015 108.944 191.838 107.135 193.673 105.35C194.077 104.958 194.103 104.705 193.711 104.288C192.154 102.604 191.559 100.592 192.04 98.3527C192.508 96.1255 193.837 94.5058 195.925 93.5694C196.368 93.3669 196.381 93.2024 196.165 92.8228C194.255 89.5454 195.583 85.1037 199.051 83.5093C199.139 83.4713 199.215 83.3575 199.316 83.3448C200.417 83.2056 200.518 82.6362 200.417 81.5859C200.114 78.435 201.974 75.727 204.96 74.6767C205.466 74.4995 205.681 74.3477 205.58 73.7023C205.049 70.4249 206.719 67.7295 209.3 66.4768C210.844 65.7175 212.464 65.6669 214.096 66.0845C214.375 66.1604 214.565 66.1604 214.78 65.9706C216.121 64.7684 217.766 64.6672 219.411 64.9329C221.904 65.3252 224.372 65.844 226.852 66.3122C228.952 66.7045 231.066 67.1095 233.166 67.4891C233.989 67.6409 234.837 67.4891 235.672 67.6916C238.456 68.3496 240.164 70.0579 240.86 72.8039C241.101 73.7529 241.138 74.7146 240.873 75.6764C240.784 76.018 240.835 76.1446 241.24 76.2711C243.657 77.0557 245.276 78.6374 245.922 81.1556C246.187 82.1806 246.213 83.193 245.947 84.2053C245.871 84.4837 245.871 84.6229 246.238 84.7368C249.199 85.5973 251.097 88.0016 251.237 91.241C251.262 91.7219 251.148 92.2027 251.059 92.6836C250.996 93.0253 251.085 93.1265 251.439 93.2277C254.387 94.1009 256.412 96.8595 256.324 99.8838C256.273 101.592 255.653 103.123 254.451 104.376C254.109 104.73 254.172 104.933 254.489 105.249C256.399 107.147 258.31 109.058 260.196 110.982C260.487 111.285 260.74 111.146 261.044 111.02C263.334 110.045 265.498 110.324 267.485 111.766C268.623 112.589 269.509 113.69 270.509 114.677C271.293 115.461 272.154 116.182 272.685 117.182C274.128 119.865 273.736 122.839 271.597 125.015C269.269 127.381 266.902 129.71 264.561 132.051C261.6 135.012 258.627 137.973 255.665 140.934C254.008 142.592 252.375 144.275 250.68 145.907C248.073 148.413 243.922 148.248 241.455 145.629C240.455 144.553 239.392 143.541 238.342 142.503C236.216 140.403 235.71 137.758 236.937 135.012C237.076 134.696 236.95 134.544 236.773 134.367C235.685 133.278 234.609 132.203 233.521 131.127C232.205 129.811 230.863 128.508 229.56 127.166C229.256 126.863 228.965 126.761 228.56 126.787C228.041 126.799 227.535 126.774 227.029 126.774ZM247.288 91.2284C247.276 90.9626 247.276 90.621 247.137 90.2667C246.314 88.2546 244.036 87.7485 242.454 89.2417C241.847 89.8238 241.24 90.3932 240.67 91.0133C239.873 91.8864 238.506 91.8864 237.823 91.2284C237.076 90.5071 236.811 89.4315 237.747 88.4444C238.861 87.255 240.012 86.1287 241.164 84.9772C241.721 84.4331 242.138 83.813 242.201 83.0285C242.303 81.8516 241.657 80.738 240.746 80.2445C239.607 79.6245 238.19 79.8649 237.342 80.776C236.76 81.4087 236.127 81.9908 235.507 82.5982C234.697 83.3954 233.394 83.4207 232.635 82.6362C231.901 81.8769 231.939 80.6495 232.723 79.8522C233.926 78.6501 235.128 77.4353 236.317 76.2331C237.355 75.1955 237.38 73.4239 236.393 72.3483C235.318 71.1968 233.635 71.0196 232.508 72.0826C230.61 73.8668 228.801 75.727 226.94 77.5492C226.725 77.7643 226.789 77.9288 226.915 78.1566C227.788 79.7763 227.953 81.4846 227.421 83.2183C226.649 85.7111 224.954 87.3815 222.41 87.8244C221.183 88.0395 220.968 88.4571 220.727 89.558C220.095 92.4938 217.779 94.5311 214.653 94.7842C214.248 94.8222 214.109 94.974 214.096 95.3663C214.046 96.3027 213.805 97.1885 213.35 97.9984C212.16 100.124 210.351 101.326 207.921 101.554C207.491 101.592 207.251 101.706 207.301 102.187C207.364 102.718 207.162 103.225 206.997 103.718C205.732 107.666 201.139 109.564 197.494 107.616C197.114 107.413 196.937 107.502 196.697 107.755C194.824 109.628 192.964 111.5 191.078 113.361C190.825 113.614 190.775 113.778 191.078 114.069C192.508 115.461 193.888 116.878 195.305 118.283C199.607 122.573 203.922 126.863 208.225 131.178C208.554 131.507 208.744 131.532 209.073 131.203C210.806 129.444 212.553 127.698 214.299 125.964C215.134 125.142 215.855 124.205 216.88 123.61C218.589 122.623 220.474 122.51 222.372 122.611C224.144 122.699 225.903 122.927 227.674 122.864C229.522 122.801 231.205 122.37 232.432 120.827C232.774 120.409 233.192 120.029 233.609 119.688C234.406 119.017 235.533 119.08 236.241 119.776C236.975 120.51 237.026 121.649 236.305 122.446C235.495 123.357 234.634 124.231 233.672 124.977C233.318 125.256 233.343 125.357 233.609 125.622C235.533 127.533 237.456 129.457 239.367 131.38C239.595 131.608 239.734 131.646 239.974 131.393C240.442 130.887 240.949 130.406 241.442 129.912C243.935 127.419 246.441 124.927 248.933 122.434C251.692 119.675 254.451 116.916 257.222 114.17C257.488 113.905 257.5 113.702 257.247 113.449C255.387 111.589 253.527 109.729 251.654 107.869C251.401 107.616 251.173 107.616 250.92 107.894C250.604 108.248 250.249 108.603 249.883 108.919C248.933 109.729 247.516 109.463 246.909 108.387C246.415 107.502 246.63 106.641 247.567 105.717C248.895 104.401 250.224 103.098 251.54 101.769C252.553 100.757 252.704 99.2638 251.945 98.1502C250.933 96.6823 249.06 96.4039 247.719 97.5681C247.01 98.1882 246.377 98.8968 245.656 99.5169C244.922 100.162 243.897 100.086 243.201 99.4156C242.379 98.6184 242.303 97.5049 243.087 96.6697C244.163 95.5435 245.276 94.4678 246.365 93.3543C246.909 92.8101 247.301 92.1521 247.288 91.2284ZM263.612 114.411C262.625 114.322 261.98 114.892 261.36 115.512C259.373 117.498 257.386 119.485 255.4 121.472C253.324 123.547 251.249 125.622 249.174 127.698C246.529 130.355 243.884 133.025 241.214 135.657C239.911 136.935 239.835 138.504 241.126 139.795C242.125 140.795 243.138 141.769 244.125 142.782C245.504 144.212 247.035 144.06 248.339 142.744C251.515 139.542 254.704 136.366 257.893 133.177C261.499 129.571 265.106 125.977 268.699 122.37C269.965 121.092 269.965 119.738 268.712 118.448C267.674 117.359 266.611 116.296 265.536 115.246C265.017 114.702 264.397 114.31 263.612 114.411ZM214.21 90.8994C214.805 90.9753 215.362 90.7349 215.868 90.3679C217.361 89.3049 217.387 87.2296 215.969 85.825C214.78 84.6482 213.603 83.4587 212.413 82.2819C211.237 81.1177 210.085 79.9282 208.858 78.8273C207.795 77.8782 206.15 78.0427 205.125 79.0171C204.049 80.0421 203.948 81.9275 205.201 83.1676C207.516 85.4581 209.807 87.7738 212.122 90.0642C212.667 90.621 213.35 90.95 214.21 90.8994ZM209.402 72.69C209.338 73.3733 209.667 74.0693 210.237 74.6387C213.147 77.5492 216.07 80.447 218.994 83.3448C219.93 84.2686 221.069 84.3825 222.195 83.8763C223.258 83.4081 223.815 82.459 223.802 81.2948C223.802 80.6368 223.752 79.8522 222.992 79.5992C221.132 78.9664 219.563 77.9035 218.133 76.5875C216.248 74.8538 214.628 72.943 213.881 70.4249C213.818 70.2224 213.679 70.1085 213.514 70.0199C211.604 69.0456 209.402 70.3869 209.402 72.69ZM210.212 94.8981C210.25 94.0123 209.845 93.3163 209.237 92.7216C207.643 91.1271 206.023 89.5454 204.441 87.9383C203.872 87.3562 203.29 86.8627 202.442 86.7235C201.379 86.5463 200.152 87.0904 199.569 88.0395C198.975 89.0139 199 90.4312 199.747 91.2284C201.569 93.2151 203.505 95.0879 205.441 96.9481C206.327 97.7959 207.44 97.9478 208.554 97.4289C209.63 96.9607 210.174 96.0749 210.212 94.8981ZM203.404 101.592C203.429 100.972 203.239 100.327 202.784 99.8459C201.999 99.0107 201.227 98.1502 200.329 97.4289C199.304 96.6191 197.798 96.6697 196.785 97.5428C195.798 98.4033 195.457 99.9598 196.14 101.023C196.925 102.238 197.975 103.237 199.152 104.072C200.025 104.692 201.037 104.654 201.961 104.136C202.91 103.604 203.416 102.769 203.404 101.592ZM218.095 68.7419C217.488 68.7292 217.412 68.8178 217.652 69.5391C217.69 69.653 217.728 69.7795 217.791 69.8934C218.918 72.285 220.778 73.9807 222.954 75.36C223.258 75.5498 223.511 75.5119 223.79 75.2335C225.194 73.8035 226.624 72.3989 228.041 70.969C228.143 70.8678 228.294 70.7792 228.256 70.6147C228.206 70.4122 228.003 70.4375 227.839 70.4122C226.232 70.1212 224.625 69.8175 223.018 69.5264C221.423 69.2354 219.854 68.8431 218.095 68.7419Z" fill="#FFB600" />
  <path d="M163.174 325.449C164.376 325.541 166.139 325.906 167.928 326.102C169.103 326.232 170.265 326.624 171.48 326.258C172.093 326.076 172.551 325.723 172.995 325.306C174.483 323.883 175.972 322.448 177.448 321.012C179.237 319.276 181.339 318.637 183.768 319.198C185.322 319.55 186.484 320.555 187.581 321.665C188.861 322.944 190.193 324.196 191.499 325.462C192.361 326.297 193.405 326.532 194.554 326.363C196.618 326.076 198.668 325.749 200.731 325.475C204.662 324.953 207.861 327.446 208.37 331.335C208.605 333.071 209.049 334.78 209.298 336.516C209.454 337.625 209.689 338.669 210.603 339.387C211.413 340.013 212.379 340.366 213.267 340.875C214.847 341.788 216.558 342.441 218.021 343.537C219.314 344.516 220.045 345.821 220.397 347.426C220.75 349.031 220.371 350.454 219.692 351.863C218.726 353.886 217.733 355.909 216.78 357.944C216.297 358.975 216.676 359.928 217.133 360.868C218.125 362.904 219.157 364.926 220.071 367.001C221.312 369.807 220.019 373.305 217.485 374.805C215.487 375.993 213.398 376.998 211.361 378.107C210.865 378.381 210.904 378.551 211.256 378.89C215.135 382.753 219 386.629 222.879 390.492C226.156 393.768 229.421 397.03 232.699 400.306C233.182 400.789 233.495 401.337 233.273 402.055C233.038 402.838 232.424 403.151 231.693 403.32C229.16 403.908 226.626 404.495 224.093 405.082C222.317 405.487 220.541 405.904 218.765 406.296C218.491 406.361 218.373 406.426 218.308 406.714C217.72 409.311 217.12 411.908 216.519 414.492C216.075 416.371 215.67 418.25 215.148 420.103C214.782 421.408 213.476 421.747 212.497 420.808C210.969 419.372 209.506 417.872 208.031 416.384C204.544 412.899 201.071 409.415 197.597 405.931C194.528 402.851 191.446 399.784 188.378 396.717C187.738 396.078 187.738 396.064 187.124 396.704C185.309 398.596 183.128 399.314 180.555 398.74C179.328 398.466 178.296 397.787 177.408 396.9C177.304 396.795 177.186 396.691 177.095 396.573C176.755 396.13 176.481 396.156 176.076 396.56C171.649 401.024 167.196 405.461 162.743 409.911C159.178 413.474 155.627 417.049 152.062 420.599C151.095 421.565 150.155 421.539 149.371 420.638C149.123 420.351 149.097 419.999 149.019 419.672C148.653 418.224 148.34 416.762 148 415.314C147.556 413.421 147.112 411.516 146.681 409.624C146.499 408.828 146.316 408.019 146.159 407.209C146.055 406.661 145.872 406.296 145.245 406.152C143.169 405.709 141.105 405.213 139.029 404.743C136.848 404.247 134.667 403.777 132.5 403.268C131.834 403.112 131.22 402.798 131.05 402.042C130.88 401.324 131.155 400.789 131.677 400.254C136.992 394.968 142.281 389.67 147.569 384.371C149.384 382.557 151.187 380.717 153.015 378.916C153.42 378.512 153.459 378.329 152.91 378.042C150.86 376.972 148.81 375.915 146.825 374.753C144.004 373.109 142.999 369.311 144.474 366.375C145.493 364.352 146.472 362.303 147.452 360.267C147.87 359.393 147.87 358.506 147.452 357.631C146.499 355.622 145.532 353.625 144.553 351.628C142.907 348.313 144.122 344.529 147.387 342.793C149.306 341.775 151.239 340.783 153.132 339.752C153.994 339.283 154.647 338.591 154.83 337.573C155.222 335.407 155.64 333.227 155.992 331.048C156.515 327.772 159.322 325.319 163.174 325.449ZM201.58 389.357C203.108 389.435 204.675 388.365 205.014 386.916C205.55 384.541 205.824 382.127 206.346 379.765C206.764 377.898 207.77 376.476 209.415 375.549C211.452 374.388 213.529 373.279 215.618 372.208C216.845 371.582 217.825 369.625 217.081 368.072C216.088 366.036 215.096 364 214.116 361.964C213.267 360.215 213.098 358.414 213.881 356.626C214.795 354.551 215.775 352.516 216.832 350.519C217.916 348.483 217.107 346.512 215.435 345.651C213.424 344.607 211.426 343.537 209.441 342.428C207.783 341.501 206.777 340.079 206.372 338.225C205.889 336.02 205.589 333.788 205.171 331.57C204.805 329.651 203.343 328.425 201.58 328.633C199.491 328.881 197.401 329.208 195.325 329.534C193.131 329.873 191.12 329.495 189.461 327.942C187.816 326.428 186.249 324.875 184.656 323.348C183.102 321.847 181.182 321.86 179.641 323.361C178.114 324.862 176.573 326.35 175.019 327.824C173.373 329.39 171.388 329.86 169.181 329.56C167.079 329.273 164.977 328.921 162.861 328.646C161.216 328.425 159.649 329.482 159.309 331.1C158.865 333.214 158.512 335.354 158.16 337.495C157.82 339.517 156.945 341.227 155.169 342.297C153.289 343.419 151.343 344.463 149.358 345.39C147.426 346.304 146.316 348.313 147.53 350.506C148.496 352.255 149.293 354.108 150.181 355.909C151.16 357.879 151.226 359.876 150.286 361.86C149.371 363.791 148.444 365.722 147.452 367.615C146.446 369.507 147.282 371.478 148.823 372.287C150.651 373.239 152.466 374.231 154.295 375.184C156.501 376.319 157.742 378.133 158.16 380.548C158.526 382.662 158.917 384.763 159.296 386.877C159.57 388.391 161.176 389.396 162.521 389.383C163.07 389.383 163.592 389.213 164.128 389.148C165.76 388.952 167.405 388.73 169.038 388.456C171.336 388.065 173.347 388.587 175.045 390.179C176.612 391.64 178.14 393.154 179.667 394.655C181.169 396.117 183.063 396.143 184.578 394.694C185.975 393.363 187.359 392.032 188.73 390.675C190.245 389.174 191.969 388.182 194.163 388.365C195.482 388.469 196.787 388.704 198.093 388.874C199.321 389.03 200.522 389.213 201.58 389.357ZM212.719 416.488C213.058 415.131 213.346 413.878 213.633 412.612C214.195 410.054 214.821 407.51 215.409 404.965C215.631 403.999 216.14 403.542 217.12 403.36C217.929 403.216 218.713 403.007 219.522 402.825C221.416 402.394 223.309 401.963 225.216 401.533C226.104 401.324 226.992 401.128 227.88 400.919C228.428 400.789 228.468 400.619 228.037 400.201C223.78 395.973 219.536 391.732 215.305 387.49C213.45 385.637 211.609 383.784 209.755 381.931C209.637 381.814 209.546 381.618 209.35 381.657C209.206 381.683 209.193 381.853 209.18 381.983C208.906 383.628 208.579 385.259 208.357 386.916C207.939 390.087 205.184 392.567 201.985 392.567C200.091 392.567 198.237 392.11 196.369 391.888C195.338 391.758 194.306 391.497 193.262 391.64C192.073 391.81 191.381 392.711 190.571 393.441C190.167 393.807 190.167 394.016 190.571 394.407C196.108 399.914 201.619 405.435 207.143 410.942C208.945 412.743 210.786 414.57 212.719 416.488ZM151.591 416.527C151.826 416.319 151.97 416.201 152.114 416.071C159.1 409.076 166.087 402.081 173.086 395.099C174.274 393.911 174.261 393.937 173.06 392.724C172.185 391.836 171.166 391.458 169.939 391.614C168.816 391.758 167.706 391.954 166.583 392.084C165.081 392.267 163.592 392.619 162.051 392.567C159.531 392.476 157.024 390.544 156.319 388.117C155.77 386.211 155.6 384.241 155.196 382.309C155.156 382.101 155.274 381.814 155.052 381.722C154.778 381.592 154.634 381.905 154.477 382.061C148.379 388.117 142.281 394.224 136.169 400.319C135.817 400.671 135.947 400.75 136.313 400.841C137.593 401.154 138.872 401.48 140.165 401.767C142.607 402.329 145.062 402.864 147.504 403.425C148.196 403.581 148.679 403.973 148.862 404.743C149.006 405.356 149.136 405.97 149.28 406.583C149.711 408.475 150.168 410.381 150.612 412.273C150.925 413.643 151.252 415.04 151.591 416.527Z" fill="#FFB600" />
  <path d="M76.222 186.558H71.03V200H68.544V186.558H63.33V184.38H76.222V186.558ZM82.0489 190.584C81.1102 190.613 80.2742 190.833 79.5409 191.244C78.8222 191.64 78.3089 192.212 78.0009 192.96V200H75.5809V188.494H77.8249V191.068C78.2209 190.276 78.7342 189.645 79.3649 189.176C80.0102 188.692 80.6996 188.428 81.4329 188.384C81.5796 188.384 81.6969 188.384 81.7849 188.384C81.8876 188.384 81.9756 188.391 82.0489 188.406V190.584ZM86.717 200.22C86.1597 200.22 85.639 200.132 85.155 199.956C84.6857 199.765 84.275 199.509 83.923 199.186C83.5857 198.863 83.3144 198.482 83.109 198.042C82.9184 197.602 82.823 197.125 82.823 196.612C82.823 196.069 82.9404 195.578 83.175 195.138C83.4097 194.698 83.7397 194.317 84.165 193.994C84.605 193.671 85.1184 193.422 85.705 193.246C86.3064 193.07 86.9664 192.982 87.685 192.982C88.2277 192.982 88.763 193.033 89.291 193.136C89.819 193.224 90.2957 193.349 90.721 193.51V192.718C90.721 191.867 90.479 191.207 89.995 190.738C89.511 190.254 88.8144 190.012 87.905 190.012C87.289 190.012 86.6804 190.129 86.079 190.364C85.4924 190.584 84.8837 190.907 84.253 191.332L83.505 189.792C84.9864 188.795 86.5264 188.296 88.125 188.296C89.709 188.296 90.941 188.699 91.821 189.506C92.701 190.313 93.141 191.471 93.141 192.982V197.14C93.141 197.653 93.3537 197.917 93.779 197.932V200C93.5444 200.044 93.339 200.073 93.163 200.088C93.0017 200.103 92.8404 200.11 92.679 200.11C92.2097 200.11 91.843 199.993 91.579 199.758C91.3297 199.523 91.1757 199.223 91.117 198.856L91.051 198.13C90.5377 198.805 89.8997 199.325 89.137 199.692C88.389 200.044 87.5824 200.22 86.717 200.22ZM87.377 198.438C87.9637 198.438 88.5137 198.335 89.027 198.13C89.555 197.91 89.9657 197.609 90.259 197.228C90.567 196.964 90.721 196.685 90.721 196.392V194.874C90.3104 194.713 89.8704 194.588 89.401 194.5C88.9464 194.412 88.499 194.368 88.059 194.368C87.1937 194.368 86.4824 194.559 85.925 194.94C85.3824 195.307 85.111 195.798 85.111 196.414C85.111 196.986 85.3237 197.47 85.749 197.866C86.1744 198.247 86.717 198.438 87.377 198.438ZM102.281 200.22C101.401 200.22 100.602 200.015 99.883 199.604C99.179 199.179 98.6217 198.614 98.211 197.91V200H96.077V183.94H98.497V190.672C98.9517 189.939 99.5163 189.359 100.191 188.934C100.88 188.509 101.687 188.296 102.611 188.296C103.374 188.296 104.07 188.465 104.701 188.802C105.332 189.125 105.867 189.565 106.307 190.122C106.762 190.665 107.106 191.303 107.341 192.036C107.59 192.755 107.715 193.51 107.715 194.302C107.715 195.123 107.576 195.893 107.297 196.612C107.018 197.331 106.637 197.961 106.153 198.504C105.669 199.032 105.09 199.45 104.415 199.758C103.755 200.066 103.044 200.22 102.281 200.22ZM101.643 198.152C102.171 198.152 102.655 198.049 103.095 197.844C103.535 197.624 103.909 197.338 104.217 196.986C104.54 196.634 104.789 196.231 104.965 195.776C105.141 195.307 105.229 194.815 105.229 194.302C105.229 193.789 105.141 193.297 104.965 192.828C104.804 192.344 104.569 191.926 104.261 191.574C103.968 191.207 103.608 190.914 103.183 190.694C102.772 190.474 102.318 190.364 101.819 190.364C101.071 190.364 100.404 190.606 99.817 191.09C99.245 191.574 98.805 192.161 98.497 192.85V195.886C98.585 196.223 98.739 196.531 98.959 196.81C99.179 197.074 99.4357 197.309 99.729 197.514C100.022 197.719 100.338 197.881 100.675 197.998C101.012 198.101 101.335 198.152 101.643 198.152ZM112.949 200.22C112.392 200.22 111.871 200.132 111.387 199.956C110.918 199.765 110.507 199.509 110.155 199.186C109.818 198.863 109.547 198.482 109.341 198.042C109.151 197.602 109.055 197.125 109.055 196.612C109.055 196.069 109.173 195.578 109.407 195.138C109.642 194.698 109.972 194.317 110.397 193.994C110.837 193.671 111.351 193.422 111.937 193.246C112.539 193.07 113.199 192.982 113.917 192.982C114.46 192.982 114.995 193.033 115.523 193.136C116.051 193.224 116.528 193.349 116.953 193.51V192.718C116.953 191.867 116.711 191.207 116.227 190.738C115.743 190.254 115.047 190.012 114.137 190.012C113.521 190.012 112.913 190.129 112.311 190.364C111.725 190.584 111.116 190.907 110.485 191.332L109.737 189.792C111.219 188.795 112.759 188.296 114.357 188.296C115.941 188.296 117.173 188.699 118.053 189.506C118.933 190.313 119.373 191.471 119.373 192.982V197.14C119.373 197.653 119.586 197.917 120.011 197.932V200C119.777 200.044 119.571 200.073 119.395 200.088C119.234 200.103 119.073 200.11 118.911 200.11C118.442 200.11 118.075 199.993 117.811 199.758C117.562 199.523 117.408 199.223 117.349 198.856L117.283 198.13C116.77 198.805 116.132 199.325 115.369 199.692C114.621 200.044 113.815 200.22 112.949 200.22ZM113.609 198.438C114.196 198.438 114.746 198.335 115.259 198.13C115.787 197.91 116.198 197.609 116.491 197.228C116.799 196.964 116.953 196.685 116.953 196.392V194.874C116.543 194.713 116.103 194.588 115.633 194.5C115.179 194.412 114.731 194.368 114.291 194.368C113.426 194.368 112.715 194.559 112.157 194.94C111.615 195.307 111.343 195.798 111.343 196.414C111.343 196.986 111.556 197.47 111.981 197.866C112.407 198.247 112.949 198.438 113.609 198.438ZM121.099 204.202C120.571 204.202 120.073 204.121 119.603 203.96C119.134 203.799 118.709 203.549 118.327 203.212L119.405 201.584C119.596 201.76 119.816 201.885 120.065 201.958C120.315 202.046 120.564 202.09 120.813 202.09C121.239 202.09 121.613 201.929 121.935 201.606C122.273 201.298 122.441 200.902 122.441 200.418V188.494H124.861V200.242C124.861 200.829 124.759 201.364 124.553 201.848C124.363 202.332 124.091 202.75 123.739 203.102C123.402 203.454 123.006 203.725 122.551 203.916C122.097 204.107 121.613 204.202 121.099 204.202ZM122.441 186.602V183.94H124.861V186.602H122.441ZM132.936 200.22C132.027 200.22 131.206 200.059 130.472 199.736C129.754 199.413 129.138 198.981 128.624 198.438C128.111 197.895 127.715 197.265 127.436 196.546C127.158 195.813 127.018 195.05 127.018 194.258C127.018 193.466 127.158 192.711 127.436 191.992C127.715 191.259 128.111 190.621 128.624 190.078C129.152 189.535 129.776 189.103 130.494 188.78C131.228 188.457 132.042 188.296 132.936 188.296C133.831 188.296 134.638 188.457 135.356 188.78C136.09 189.103 136.713 189.535 137.226 190.078C137.754 190.621 138.158 191.259 138.436 191.992C138.715 192.711 138.854 193.466 138.854 194.258C138.854 195.05 138.715 195.813 138.436 196.546C138.158 197.265 137.754 197.895 137.226 198.438C136.713 198.981 136.09 199.413 135.356 199.736C134.638 200.059 133.831 200.22 132.936 200.22ZM129.504 194.28C129.504 194.837 129.592 195.351 129.768 195.82C129.944 196.289 130.186 196.7 130.494 197.052C130.802 197.389 131.162 197.661 131.572 197.866C131.998 198.057 132.452 198.152 132.936 198.152C133.42 198.152 133.868 198.057 134.278 197.866C134.704 197.661 135.07 197.382 135.378 197.03C135.686 196.678 135.928 196.267 136.104 195.798C136.28 195.329 136.368 194.815 136.368 194.258C136.368 193.715 136.28 193.209 136.104 192.74C135.928 192.256 135.686 191.838 135.378 191.486C135.07 191.134 134.704 190.863 134.278 190.672C133.868 190.467 133.42 190.364 132.936 190.364C132.467 190.364 132.02 190.467 131.594 190.672C131.184 190.877 130.824 191.156 130.516 191.508C130.208 191.86 129.959 192.278 129.768 192.762C129.592 193.231 129.504 193.737 129.504 194.28ZM151.65 200.22C150.756 200.22 149.942 200.066 149.208 199.758C148.475 199.435 147.844 199.003 147.316 198.46C146.803 197.917 146.4 197.287 146.106 196.568C145.828 195.849 145.688 195.087 145.688 194.28C145.688 193.473 145.828 192.711 146.106 191.992C146.4 191.259 146.803 190.621 147.316 190.078C147.844 189.521 148.475 189.088 149.208 188.78C149.942 188.457 150.763 188.296 151.672 188.296C152.567 188.296 153.374 188.457 154.092 188.78C154.826 189.103 155.449 189.535 155.962 190.078C156.476 190.606 156.864 191.229 157.128 191.948C157.407 192.652 157.546 193.393 157.546 194.17C157.546 194.346 157.539 194.515 157.524 194.676C157.51 194.823 157.495 194.947 157.48 195.05H148.262C148.306 195.563 148.424 196.025 148.614 196.436C148.82 196.847 149.076 197.206 149.384 197.514C149.707 197.807 150.066 198.035 150.462 198.196C150.873 198.357 151.298 198.438 151.738 198.438C152.061 198.438 152.376 198.401 152.684 198.328C153.007 198.24 153.3 198.123 153.564 197.976C153.828 197.815 154.063 197.624 154.268 197.404C154.474 197.184 154.635 196.942 154.752 196.678L156.82 197.272C156.424 198.137 155.764 198.849 154.84 199.406C153.931 199.949 152.868 200.22 151.65 200.22ZM155.148 193.378C155.104 192.894 154.98 192.447 154.774 192.036C154.584 191.625 154.334 191.281 154.026 191.002C153.718 190.709 153.359 190.481 152.948 190.32C152.538 190.159 152.105 190.078 151.65 190.078C151.196 190.078 150.763 190.159 150.352 190.32C149.956 190.481 149.604 190.709 149.296 191.002C148.988 191.281 148.739 191.625 148.548 192.036C148.358 192.447 148.24 192.894 148.196 193.378H155.148ZM169.838 200H167.418V193.554C167.418 192.469 167.242 191.684 166.89 191.2C166.553 190.701 166.047 190.452 165.372 190.452C165.02 190.452 164.668 190.518 164.316 190.65C163.964 190.782 163.634 190.973 163.326 191.222C163.018 191.457 162.74 191.743 162.49 192.08C162.256 192.403 162.072 192.762 161.94 193.158V200H159.52V188.494H161.72V190.804C162.16 190.027 162.798 189.418 163.634 188.978C164.47 188.523 165.394 188.296 166.406 188.296C167.096 188.296 167.66 188.421 168.1 188.67C168.54 188.919 168.885 189.264 169.134 189.704C169.398 190.129 169.582 190.628 169.684 191.2C169.787 191.757 169.838 192.351 169.838 192.982V200ZM183.297 200.22C182.402 200.22 181.588 200.066 180.855 199.758C180.122 199.435 179.491 199.003 178.963 198.46C178.45 197.917 178.046 197.287 177.753 196.568C177.474 195.849 177.335 195.087 177.335 194.28C177.335 193.473 177.474 192.711 177.753 191.992C178.046 191.259 178.45 190.621 178.963 190.078C179.491 189.521 180.122 189.088 180.855 188.78C181.588 188.457 182.41 188.296 183.319 188.296C184.214 188.296 185.02 188.457 185.739 188.78C186.472 189.103 187.096 189.535 187.609 190.078C188.122 190.606 188.511 191.229 188.775 191.948C189.054 192.652 189.193 193.393 189.193 194.17C189.193 194.346 189.186 194.515 189.171 194.676C189.156 194.823 189.142 194.947 189.127 195.05H179.909C179.953 195.563 180.07 196.025 180.261 196.436C180.466 196.847 180.723 197.206 181.031 197.514C181.354 197.807 181.713 198.035 182.109 198.196C182.52 198.357 182.945 198.438 183.385 198.438C183.708 198.438 184.023 198.401 184.331 198.328C184.654 198.24 184.947 198.123 185.211 197.976C185.475 197.815 185.71 197.624 185.915 197.404C186.12 197.184 186.282 196.942 186.399 196.678L188.467 197.272C188.071 198.137 187.411 198.849 186.487 199.406C185.578 199.949 184.514 200.22 183.297 200.22ZM186.795 193.378C186.751 192.894 186.626 192.447 186.421 192.036C186.23 191.625 185.981 191.281 185.673 191.002C185.365 190.709 185.006 190.481 184.595 190.32C184.184 190.159 183.752 190.078 183.297 190.078C182.842 190.078 182.41 190.159 181.999 190.32C181.603 190.481 181.251 190.709 180.943 191.002C180.635 191.281 180.386 191.625 180.195 192.036C180.004 192.447 179.887 192.894 179.843 193.378H186.795ZM195.545 200.22C194.797 200.22 194.108 200.059 193.477 199.736C192.861 199.413 192.326 198.981 191.871 198.438C191.431 197.895 191.086 197.265 190.837 196.546C190.588 195.813 190.463 195.043 190.463 194.236C190.463 193.415 190.595 192.645 190.859 191.926C191.138 191.207 191.519 190.577 192.003 190.034C192.487 189.491 193.059 189.066 193.719 188.758C194.379 188.45 195.098 188.296 195.875 188.296C196.755 188.296 197.547 188.509 198.251 188.934C198.955 189.359 199.52 189.909 199.945 190.584V188.494H202.079V201.716C202.079 201.995 202.13 202.185 202.233 202.288C202.35 202.405 202.534 202.479 202.783 202.508V204.576C202.563 204.605 202.336 204.627 202.101 204.642C201.881 204.657 201.676 204.664 201.485 204.664C200.986 204.664 200.554 204.495 200.187 204.158C199.835 203.821 199.659 203.403 199.659 202.904V197.844C199.19 198.636 198.603 199.23 197.899 199.626C197.21 200.022 196.425 200.22 195.545 200.22ZM196.425 198.152C197.158 198.152 197.789 197.947 198.317 197.536C198.86 197.111 199.307 196.583 199.659 195.952V192.916C199.586 192.564 199.439 192.234 199.219 191.926C198.999 191.618 198.735 191.354 198.427 191.134C198.134 190.899 197.811 190.716 197.459 190.584C197.107 190.437 196.762 190.364 196.425 190.364C195.912 190.364 195.442 190.474 195.017 190.694C194.592 190.914 194.225 191.207 193.917 191.574C193.609 191.941 193.367 192.366 193.191 192.85C193.015 193.319 192.927 193.803 192.927 194.302C192.927 194.83 193.015 195.329 193.191 195.798C193.367 196.267 193.609 196.678 193.917 197.03C194.225 197.367 194.592 197.639 195.017 197.844C195.442 198.049 195.912 198.152 196.425 198.152ZM208.523 200.22C207.321 200.22 206.411 199.831 205.795 199.054C205.179 198.262 204.871 197.089 204.871 195.534V188.494H207.291V195.05C207.291 197.118 208.025 198.152 209.491 198.152C210.181 198.152 210.833 197.939 211.449 197.514C212.065 197.089 212.542 196.473 212.879 195.666V188.494H215.299V197.14C215.299 197.419 215.343 197.617 215.431 197.734C215.534 197.851 215.71 197.917 215.959 197.932V200C215.71 200.044 215.505 200.073 215.343 200.088C215.182 200.103 215.028 200.11 214.881 200.11C214.441 200.11 214.067 199.993 213.759 199.758C213.451 199.509 213.29 199.193 213.275 198.812L213.231 197.668C212.718 198.504 212.051 199.142 211.229 199.582C210.408 200.007 209.506 200.22 208.523 200.22ZM218.388 200V188.494H220.808V200H218.388ZM218.388 186.602V183.94H220.808V186.602H218.388ZM230.25 200.22C229.326 200.22 228.512 200 227.808 199.56C227.104 199.12 226.546 198.548 226.136 197.844V204.686H223.716V188.494H225.85V190.562C226.29 189.873 226.854 189.323 227.544 188.912C228.248 188.501 229.04 188.296 229.92 188.296C230.712 188.296 231.438 188.457 232.098 188.78C232.758 189.103 233.33 189.535 233.814 190.078C234.298 190.621 234.672 191.251 234.936 191.97C235.214 192.689 235.354 193.444 235.354 194.236C235.354 195.072 235.229 195.857 234.98 196.59C234.73 197.309 234.378 197.939 233.924 198.482C233.469 199.01 232.926 199.435 232.296 199.758C231.68 200.066 230.998 200.22 230.25 200.22ZM229.458 198.152C229.971 198.152 230.433 198.042 230.844 197.822C231.269 197.602 231.628 197.309 231.922 196.942C232.23 196.575 232.464 196.157 232.626 195.688C232.787 195.219 232.868 194.735 232.868 194.236C232.868 193.708 232.772 193.209 232.582 192.74C232.406 192.271 232.156 191.86 231.834 191.508C231.526 191.156 231.152 190.877 230.712 190.672C230.272 190.467 229.795 190.364 229.282 190.364C228.974 190.364 228.651 190.423 228.314 190.54C227.976 190.657 227.661 190.819 227.368 191.024C227.074 191.229 226.818 191.471 226.598 191.75C226.378 192.014 226.224 192.307 226.136 192.63V195.644C226.282 195.996 226.473 196.326 226.708 196.634C226.942 196.942 227.199 197.206 227.478 197.426C227.771 197.646 228.086 197.822 228.424 197.954C228.761 198.086 229.106 198.152 229.458 198.152ZM242.7 200.22C241.791 200.22 240.969 200.059 240.236 199.736C239.517 199.413 238.901 198.981 238.388 198.438C237.875 197.895 237.479 197.265 237.2 196.546C236.921 195.813 236.782 195.05 236.782 194.258C236.782 193.466 236.921 192.711 237.2 191.992C237.479 191.259 237.875 190.621 238.388 190.078C238.916 189.535 239.539 189.103 240.258 188.78C240.991 188.457 241.805 188.296 242.7 188.296C243.595 188.296 244.401 188.457 245.12 188.78C245.853 189.103 246.477 189.535 246.99 190.078C247.518 190.621 247.921 191.259 248.2 191.992C248.479 192.711 248.618 193.466 248.618 194.258C248.618 195.05 248.479 195.813 248.2 196.546C247.921 197.265 247.518 197.895 246.99 198.438C246.477 198.981 245.853 199.413 245.12 199.736C244.401 200.059 243.595 200.22 242.7 200.22ZM239.268 194.28C239.268 194.837 239.356 195.351 239.532 195.82C239.708 196.289 239.95 196.7 240.258 197.052C240.566 197.389 240.925 197.661 241.336 197.866C241.761 198.057 242.216 198.152 242.7 198.152C243.184 198.152 243.631 198.057 244.042 197.866C244.467 197.661 244.834 197.382 245.142 197.03C245.45 196.678 245.692 196.267 245.868 195.798C246.044 195.329 246.132 194.815 246.132 194.258C246.132 193.715 246.044 193.209 245.868 192.74C245.692 192.256 245.45 191.838 245.142 191.486C244.834 191.134 244.467 190.863 244.042 190.672C243.631 190.467 243.184 190.364 242.7 190.364C242.231 190.364 241.783 190.467 241.358 190.672C240.947 190.877 240.588 191.156 240.28 191.508C239.972 191.86 239.723 192.278 239.532 192.762C239.356 193.231 239.268 193.737 239.268 194.28Z" fill="#323232" />
  <path d="M376.76 328V312.38H379.224V328H376.76ZM392.764 328H390.344V321.554C390.344 320.469 390.168 319.684 389.816 319.2C389.479 318.701 388.973 318.452 388.298 318.452C387.946 318.452 387.594 318.518 387.242 318.65C386.89 318.782 386.56 318.973 386.252 319.222C385.944 319.457 385.665 319.743 385.416 320.08C385.181 320.403 384.998 320.762 384.866 321.158V328H382.446V316.494H384.646V318.804C385.086 318.027 385.724 317.418 386.56 316.978C387.396 316.523 388.32 316.296 389.332 316.296C390.021 316.296 390.586 316.421 391.026 316.67C391.466 316.919 391.811 317.264 392.06 317.704C392.324 318.129 392.507 318.628 392.61 319.2C392.713 319.757 392.764 320.351 392.764 320.982V328ZM405.891 328H403.471V321.554C403.471 320.469 403.295 319.684 402.943 319.2C402.606 318.701 402.1 318.452 401.425 318.452C401.073 318.452 400.721 318.518 400.369 318.65C400.017 318.782 399.687 318.973 399.379 319.222C399.071 319.457 398.792 319.743 398.543 320.08C398.308 320.403 398.125 320.762 397.993 321.158V328H395.573V316.494H397.773V318.804C398.213 318.027 398.851 317.418 399.687 316.978C400.523 316.523 401.447 316.296 402.459 316.296C403.148 316.296 403.713 316.421 404.153 316.67C404.593 316.919 404.938 317.264 405.187 317.704C405.451 318.129 405.634 318.628 405.737 319.2C405.84 319.757 405.891 320.351 405.891 320.982V328ZM413.87 328.22C412.961 328.22 412.139 328.059 411.406 327.736C410.687 327.413 410.071 326.981 409.558 326.438C409.045 325.895 408.649 325.265 408.37 324.546C408.091 323.813 407.952 323.05 407.952 322.258C407.952 321.466 408.091 320.711 408.37 319.992C408.649 319.259 409.045 318.621 409.558 318.078C410.086 317.535 410.709 317.103 411.428 316.78C412.161 316.457 412.975 316.296 413.87 316.296C414.765 316.296 415.571 316.457 416.29 316.78C417.023 317.103 417.647 317.535 418.16 318.078C418.688 318.621 419.091 319.259 419.37 319.992C419.649 320.711 419.788 321.466 419.788 322.258C419.788 323.05 419.649 323.813 419.37 324.546C419.091 325.265 418.688 325.895 418.16 326.438C417.647 326.981 417.023 327.413 416.29 327.736C415.571 328.059 414.765 328.22 413.87 328.22ZM410.438 322.28C410.438 322.837 410.526 323.351 410.702 323.82C410.878 324.289 411.12 324.7 411.428 325.052C411.736 325.389 412.095 325.661 412.506 325.866C412.931 326.057 413.386 326.152 413.87 326.152C414.354 326.152 414.801 326.057 415.212 325.866C415.637 325.661 416.004 325.382 416.312 325.03C416.62 324.678 416.862 324.267 417.038 323.798C417.214 323.329 417.302 322.815 417.302 322.258C417.302 321.715 417.214 321.209 417.038 320.74C416.862 320.256 416.62 319.838 416.312 319.486C416.004 319.134 415.637 318.863 415.212 318.672C414.801 318.467 414.354 318.364 413.87 318.364C413.401 318.364 412.953 318.467 412.528 318.672C412.117 318.877 411.758 319.156 411.45 319.508C411.142 319.86 410.893 320.278 410.702 320.762C410.526 321.231 410.438 321.737 410.438 322.28ZM424.76 328L420.36 316.494H422.846L426.146 325.954L429.468 316.494H431.756L427.356 328H424.76ZM436.25 328.22C435.693 328.22 435.172 328.132 434.688 327.956C434.219 327.765 433.808 327.509 433.456 327.186C433.119 326.863 432.848 326.482 432.642 326.042C432.452 325.602 432.356 325.125 432.356 324.612C432.356 324.069 432.474 323.578 432.708 323.138C432.943 322.698 433.273 322.317 433.698 321.994C434.138 321.671 434.652 321.422 435.238 321.246C435.84 321.07 436.5 320.982 437.218 320.982C437.761 320.982 438.296 321.033 438.824 321.136C439.352 321.224 439.829 321.349 440.254 321.51V320.718C440.254 319.867 440.012 319.207 439.528 318.738C439.044 318.254 438.348 318.012 437.438 318.012C436.822 318.012 436.214 318.129 435.612 318.364C435.026 318.584 434.417 318.907 433.786 319.332L433.038 317.792C434.52 316.795 436.06 316.296 437.658 316.296C439.242 316.296 440.474 316.699 441.354 317.506C442.234 318.313 442.674 319.471 442.674 320.982V325.14C442.674 325.653 442.887 325.917 443.312 325.932V328C443.078 328.044 442.872 328.073 442.696 328.088C442.535 328.103 442.374 328.11 442.212 328.11C441.743 328.11 441.376 327.993 441.112 327.758C440.863 327.523 440.709 327.223 440.65 326.856L440.584 326.13C440.071 326.805 439.433 327.325 438.67 327.692C437.922 328.044 437.116 328.22 436.25 328.22ZM436.91 326.438C437.497 326.438 438.047 326.335 438.56 326.13C439.088 325.91 439.499 325.609 439.792 325.228C440.1 324.964 440.254 324.685 440.254 324.392V322.874C439.844 322.713 439.404 322.588 438.934 322.5C438.48 322.412 438.032 322.368 437.592 322.368C436.727 322.368 436.016 322.559 435.458 322.94C434.916 323.307 434.644 323.798 434.644 324.414C434.644 324.986 434.857 325.47 435.282 325.866C435.708 326.247 436.25 326.438 436.91 326.438ZM444.862 322.236C444.862 321.429 445.002 320.667 445.28 319.948C445.559 319.229 445.955 318.599 446.468 318.056C446.996 317.513 447.627 317.088 448.36 316.78C449.094 316.457 449.915 316.296 450.824 316.296C452.012 316.296 453.032 316.56 453.882 317.088C454.748 317.601 455.393 318.291 455.818 319.156L453.464 319.904C453.186 319.42 452.812 319.046 452.342 318.782C451.873 318.503 451.352 318.364 450.78 318.364C450.296 318.364 449.842 318.459 449.416 318.65C449.006 318.841 448.646 319.112 448.338 319.464C448.03 319.801 447.788 320.205 447.612 320.674C447.436 321.143 447.348 321.664 447.348 322.236C447.348 322.793 447.436 323.314 447.612 323.798C447.803 324.267 448.052 324.678 448.36 325.03C448.683 325.382 449.05 325.661 449.46 325.866C449.886 326.057 450.333 326.152 450.802 326.152C451.096 326.152 451.389 326.115 451.682 326.042C451.976 325.954 452.24 325.837 452.474 325.69C452.724 325.543 452.936 325.375 453.112 325.184C453.303 324.993 453.442 324.788 453.53 324.568L455.906 325.272C455.525 326.137 454.887 326.849 453.992 327.406C453.098 327.949 452.042 328.22 450.824 328.22C449.93 328.22 449.116 328.059 448.382 327.736C447.649 327.413 447.018 326.981 446.49 326.438C445.977 325.881 445.574 325.243 445.28 324.524C445.002 323.805 444.862 323.043 444.862 322.236ZM457.899 328V316.494H460.319V328H457.899ZM457.899 314.602V311.94H460.319V314.602H457.899ZM468.925 314.844L467.341 314.36L468.595 311.94H470.905L468.925 314.844ZM468.397 328.22C467.488 328.22 466.667 328.059 465.933 327.736C465.215 327.413 464.599 326.981 464.085 326.438C463.572 325.895 463.176 325.265 462.897 324.546C462.619 323.813 462.479 323.05 462.479 322.258C462.479 321.466 462.619 320.711 462.897 319.992C463.176 319.259 463.572 318.621 464.085 318.078C464.613 317.535 465.237 317.103 465.955 316.78C466.689 316.457 467.503 316.296 468.397 316.296C469.292 316.296 470.099 316.457 470.817 316.78C471.551 317.103 472.174 317.535 472.687 318.078C473.215 318.621 473.619 319.259 473.897 319.992C474.176 320.711 474.315 321.466 474.315 322.258C474.315 323.05 474.176 323.813 473.897 324.546C473.619 325.265 473.215 325.895 472.687 326.438C472.174 326.981 471.551 327.413 470.817 327.736C470.099 328.059 469.292 328.22 468.397 328.22ZM464.965 322.28C464.965 322.837 465.053 323.351 465.229 323.82C465.405 324.289 465.647 324.7 465.955 325.052C466.263 325.389 466.623 325.661 467.033 325.866C467.459 326.057 467.913 326.152 468.397 326.152C468.881 326.152 469.329 326.057 469.739 325.866C470.165 325.661 470.531 325.382 470.839 325.03C471.147 324.678 471.389 324.267 471.565 323.798C471.741 323.329 471.829 322.815 471.829 322.258C471.829 321.715 471.741 321.209 471.565 320.74C471.389 320.256 471.147 319.838 470.839 319.486C470.531 319.134 470.165 318.863 469.739 318.672C469.329 318.467 468.881 318.364 468.397 318.364C467.928 318.364 467.481 318.467 467.055 318.672C466.645 318.877 466.285 319.156 465.977 319.508C465.669 319.86 465.42 320.278 465.229 320.762C465.053 321.231 464.965 321.737 464.965 322.28ZM486.78 328H484.36V321.554C484.36 320.469 484.184 319.684 483.832 319.2C483.494 318.701 482.988 318.452 482.314 318.452C481.962 318.452 481.61 318.518 481.258 318.65C480.906 318.782 480.576 318.973 480.268 319.222C479.96 319.457 479.681 319.743 479.432 320.08C479.197 320.403 479.014 320.762 478.882 321.158V328H476.462V316.494H478.662V318.804C479.102 318.027 479.74 317.418 480.576 316.978C481.412 316.523 482.336 316.296 483.348 316.296C484.037 316.296 484.602 316.421 485.042 316.67C485.482 316.919 485.826 317.264 486.076 317.704C486.34 318.129 486.523 318.628 486.626 319.2C486.728 319.757 486.78 320.351 486.78 320.982V328Z" fill="#323232" />
</svg>